<svg width="201" height="76" viewBox="0 0 201 76" fill="none" xmlns="http://www.w3.org/2000/svg">
<rect id="text" x="1.37582" y="1.37582" width="198.118" height="72.9183" rx="12.3824" stroke="black" stroke-width="2.75163"/>
<g clip-path="url(#clip0_35:204)">
<path d="M47.4618 38.9355C47.477 37.7874 47.7822 36.6617 48.3492 35.6632C48.9162 34.6647 49.7264 33.8258 50.7047 33.2245C50.0832 32.3368 49.2633 31.6063 48.3102 31.0909C47.357 30.5755 46.2968 30.2895 45.2138 30.2555C42.9024 30.0133 40.6639 31.6382 39.4862 31.6382C38.2865 31.6382 36.4732 30.2789 34.5209 30.3201C33.2585 30.3607 32.028 30.7277 30.9495 31.3852C29.8711 32.0427 28.9813 32.9684 28.3669 34.072C25.7061 38.6796 27.6914 45.45 30.2407 49.1743C31.5148 50.9973 33.0061 53.0335 34.9557 52.962C36.8639 52.8822 37.5766 51.7444 39.8811 51.7444C42.1622 51.7444 42.8309 52.962 44.8203 52.9166C46.8689 52.8822 48.1594 51.084 49.3894 49.2431C50.3058 47.9441 51.0112 46.5084 51.4792 44.9891C50.2892 44.486 49.2736 43.6437 48.5592 42.5671C47.8447 41.4906 47.4631 40.2275 47.4618 38.9355ZM43.7045 27.8051C44.8206 26.465 45.3704 24.7425 45.2372 23.0035C43.5316 23.183 41.9562 23.9984 40.8249 25.2874C40.2716 25.9169 39.8478 26.6494 39.5777 27.4428C39.3077 28.2363 39.1966 29.0751 39.251 29.9115C40.1042 29.9203 40.9482 29.7354 41.7196 29.3708C42.4911 29.0062 43.1697 28.4714 43.7045 27.8065V27.8051Z" fill="#444444"/>
<path d="M75.6637 48.3462H69.1519L67.5876 52.9634H64.8291L70.9969 35.8785H73.8627L80.0319 52.9634H77.2252L75.6637 48.3462ZM69.8261 46.2137H74.9881L72.4429 38.721H72.3713L69.8261 46.2137ZM93.3525 46.7365C93.3525 50.6067 91.2819 53.0928 88.1547 53.0928C87.3628 53.1343 86.5752 52.9521 85.882 52.5669C85.1888 52.1818 84.618 51.6092 84.235 50.9148H84.1758V57.084H81.6196V40.5068H84.0947V42.5788H84.1414C84.5419 41.8876 85.1222 41.3179 85.8207 40.9303C86.5191 40.5427 87.3096 40.3516 88.1079 40.3775C91.2696 40.3775 93.3525 42.8759 93.3525 46.7365ZM90.7247 46.7365C90.7247 44.2146 89.4218 42.5568 87.4338 42.5568C85.4801 42.5568 84.1662 44.249 84.1662 46.7365C84.1662 49.246 85.4801 50.9272 87.4338 50.9272C89.4218 50.9272 90.7247 49.2804 90.7247 46.7365ZM107.063 46.7365C107.063 50.6067 104.991 53.0928 101.865 53.0928C101.073 53.1343 100.285 52.9521 99.592 52.5669C98.8988 52.1818 98.328 51.6092 97.945 50.9148H97.8859V57.084H95.331V40.5068H97.8061V42.5788H97.8528C98.2533 41.8876 98.8336 41.3179 99.5321 40.9303C100.231 40.5427 101.021 40.3516 101.819 40.3775C104.981 40.3775 107.064 42.8759 107.064 46.7365H107.063ZM104.435 46.7365C104.435 44.2146 103.132 42.5568 101.144 42.5568C99.1901 42.5568 97.8762 44.249 97.8762 46.7365C97.8762 49.246 99.1901 50.9272 101.144 50.9272C103.132 50.9272 104.435 49.2804 104.435 46.7365ZM116.124 48.2031C116.314 49.8981 117.959 51.0098 120.208 51.0098C122.363 51.0098 123.914 49.8981 123.914 48.3696C123.914 47.0433 122.978 46.2508 120.764 45.706L118.549 45.1722C115.412 44.4155 113.957 42.9475 113.957 40.566C113.957 37.619 116.525 35.5938 120.174 35.5938C123.784 35.5938 126.258 37.619 126.342 40.566H123.761C123.607 38.8613 122.197 37.8322 120.137 37.8322C118.077 37.8322 116.669 38.8737 116.669 40.3885C116.669 41.5964 117.568 42.3077 119.771 42.8512L121.653 43.3135C125.159 44.1431 126.614 45.5505 126.614 48.0504C126.614 51.2464 124.069 53.2482 120.019 53.2482C116.23 53.2482 113.672 51.2946 113.507 48.2031H116.124ZM132.133 37.5598V40.5068H134.502V42.532H132.133V49.3987C132.133 50.4663 132.607 50.963 133.649 50.963C133.929 50.958 134.21 50.9383 134.488 50.9038V52.9167C134.021 53.004 133.545 53.0437 133.07 53.035C130.548 53.035 129.564 52.087 129.564 49.6711V42.532H127.752V40.5068H129.564V37.5598H132.133ZM135.874 46.7365C135.874 42.8168 138.181 40.3541 141.781 40.3541C145.393 40.3541 147.69 42.8168 147.69 46.7365C147.69 50.6658 145.404 53.1175 141.781 53.1175C138.159 53.1175 135.874 50.6658 135.874 46.7365ZM145.085 46.7365C145.085 44.0481 143.853 42.4605 141.781 42.4605C139.709 42.4605 138.479 44.0592 138.479 46.7365C138.479 49.4358 139.709 51.0098 141.781 51.0098C143.853 51.0098 145.085 49.4358 145.085 46.7365ZM149.798 40.5068H152.236V42.6269H152.295C152.461 41.965 152.849 41.3801 153.394 40.9704C153.94 40.5608 154.61 40.3514 155.292 40.3775C155.587 40.3763 155.881 40.4081 156.168 40.4724V42.8636C155.796 42.75 155.408 42.698 155.019 42.7095C154.648 42.6944 154.278 42.7599 153.934 42.9014C153.59 43.0429 153.281 43.2572 153.028 43.5294C152.775 43.8017 152.583 44.1255 152.467 44.4787C152.351 44.8318 152.312 45.2059 152.354 45.5753V52.9634H149.798V40.5068ZM167.956 49.3051C167.612 51.5656 165.411 53.1175 162.593 53.1175C158.969 53.1175 156.72 50.6906 156.72 46.7957C156.72 42.8883 158.982 40.3541 162.485 40.3541C165.931 40.3541 168.098 42.7205 168.098 46.4985V47.3749H159.301V47.529C159.26 47.9874 159.318 48.4492 159.47 48.8837C159.621 49.3182 159.864 49.7155 160.181 50.0491C160.498 50.3828 160.882 50.6451 161.308 50.8188C161.734 50.9925 162.193 51.0736 162.652 51.0566C163.256 51.113 163.862 50.9731 164.381 50.6576C164.899 50.342 165.301 49.8677 165.528 49.3051H167.956ZM159.313 45.5877H165.54C165.563 45.1755 165.501 44.7631 165.357 44.3762C165.213 43.9893 164.991 43.6364 164.704 43.3395C164.417 43.0426 164.072 42.8082 163.69 42.6511C163.309 42.4939 162.899 42.4173 162.486 42.4261C162.07 42.4235 161.657 42.5035 161.271 42.6613C160.886 42.8192 160.536 43.0518 160.241 43.3457C159.946 43.6397 159.712 43.9891 159.553 44.3739C159.394 44.7587 159.312 45.1713 159.313 45.5877Z" fill="#444444"/>
<path d="M70.32 31.2282V27.6263H66.1045V31.2282H64.8291V23.0173H66.1045V26.4651H70.32V23.0173H71.5885V31.2268L70.32 31.2282ZM73.3262 29.4754C73.3262 28.361 74.1558 27.7171 75.6306 27.6263L77.3091 27.53V26.9948C77.3091 26.3413 76.8758 25.9712 76.0393 25.9712C75.3569 25.9712 74.8836 26.2216 74.7487 26.6591H73.5655C73.6894 25.5956 74.691 24.9118 76.097 24.9118C77.649 24.9118 78.5254 25.6864 78.5254 26.9948V31.2282H77.349V30.3573H77.2527C77.0563 30.6697 76.7805 30.9244 76.4535 31.0953C76.1264 31.2662 75.7599 31.3472 75.3913 31.33C75.1311 31.3572 74.8682 31.3294 74.6194 31.2487C74.3707 31.1679 74.1416 31.0359 73.947 30.8611C73.7524 30.6864 73.5966 30.4728 73.4897 30.2341C73.3828 29.9954 73.327 29.737 73.3262 29.4754ZM74.1227 23.4218C74.1236 23.2719 74.1687 23.1256 74.2525 23.0013C74.3364 22.877 74.4551 22.7803 74.5938 22.7234C74.7325 22.6665 74.8849 22.6519 75.0319 22.6814C75.1788 22.711 75.3138 22.7833 75.4197 22.8894C75.5256 22.9955 75.5977 23.1306 75.627 23.2776C75.6563 23.4247 75.6414 23.5771 75.5842 23.7156C75.527 23.8542 75.4301 23.9728 75.3057 24.0564C75.1813 24.14 75.0349 24.1849 74.885 24.1854C74.7844 24.1867 74.6846 24.1678 74.5914 24.1299C74.4983 24.092 74.4137 24.0358 74.3426 23.9646C74.2716 23.8934 74.2155 23.8087 74.1777 23.7155C74.14 23.6223 74.1213 23.5224 74.1227 23.4218ZM77.3078 28.9471V28.4284L75.7944 28.5247C74.9414 28.5825 74.5561 28.8728 74.5561 29.419C74.5561 29.9762 75.0377 30.2995 75.7036 30.2995C75.8983 30.3192 76.0949 30.2995 76.2819 30.2417C76.4689 30.1838 76.6423 30.089 76.7919 29.9629C76.9416 29.8368 77.0643 29.6819 77.1529 29.5074C77.2415 29.3329 77.2942 29.1424 77.3078 28.9471ZM76.5511 23.4218C76.5511 23.2204 76.6311 23.0273 76.7735 22.8848C76.9159 22.7424 77.1091 22.6624 77.3105 22.6624C77.5119 22.6624 77.7051 22.7424 77.8475 22.8848C77.9899 23.0273 78.07 23.2204 78.07 23.4218C78.0743 23.5242 78.0579 23.6264 78.0218 23.7222C77.9856 23.8181 77.9304 23.9056 77.8595 23.9796C77.7886 24.0536 77.7035 24.1125 77.6093 24.1527C77.5151 24.1929 77.4137 24.2136 77.3112 24.2136C77.2088 24.2136 77.1074 24.1929 77.0131 24.1527C76.9189 24.1125 76.8338 24.0536 76.7629 23.9796C76.692 23.9056 76.6368 23.8181 76.6006 23.7222C76.5645 23.6264 76.5481 23.5242 76.5524 23.4218H76.5511ZM80.4405 25.0329H81.6168V26.0276H81.709C81.8564 25.6959 82.0969 25.414 82.4013 25.2161C82.7057 25.0183 83.0609 24.913 83.424 24.913C83.787 24.913 84.1422 25.0183 84.4466 25.2161C84.751 25.414 84.9915 25.6959 85.1389 26.0276H85.2352C85.4083 25.6798 85.6784 25.3894 86.0129 25.1917C86.3473 24.994 86.7319 24.8972 87.1201 24.9132C87.3915 24.8911 87.6645 24.9294 87.9193 25.0254C88.1741 25.1215 88.4045 25.2729 88.5937 25.4687C88.7829 25.6645 88.9264 25.8999 89.0137 26.1579C89.101 26.4158 89.1299 26.6899 89.0985 26.9604V31.2282H87.8754V27.2796C87.8754 26.4431 87.4764 26.0331 86.6743 26.0331C86.5016 26.0258 86.3291 26.0543 86.1679 26.1168C86.0066 26.1793 85.8601 26.2744 85.7373 26.3962C85.6146 26.5181 85.5184 26.664 85.4547 26.8247C85.391 26.9855 85.3613 27.1577 85.3673 27.3305V31.2282H84.1662V27.1586C84.1739 27.0027 84.1477 26.847 84.0894 26.7023C84.0311 26.5575 83.9422 26.4271 83.8287 26.32C83.7152 26.213 83.5798 26.1317 83.432 26.082C83.2841 26.0322 83.1271 26.0151 82.972 26.0318C82.7926 26.0346 82.6156 26.0737 82.4517 26.1466C82.2877 26.2195 82.1402 26.3248 82.0179 26.4561C81.8956 26.5874 81.801 26.742 81.7399 26.9107C81.6788 27.0794 81.6524 27.2587 81.6622 27.4378V31.2268H80.4405V25.0329ZM92.644 23.4906V25.0604H93.9854V26.0909H92.644V29.2759C92.644 29.9253 92.9109 30.2101 93.5204 30.2101C93.6758 30.2094 93.8311 30.1997 93.9854 30.1812V31.1993C93.7661 31.2389 93.5438 31.26 93.3209 31.2626C91.9616 31.2626 91.4195 30.7838 91.4195 29.5896V26.0909H90.4358V25.0604H91.4195V23.4906H92.644ZM95.2457 29.4754C95.2457 28.361 96.0767 27.7171 97.5502 27.6263L99.2287 27.53V26.9948C99.2287 26.3413 98.7953 25.9712 97.9601 25.9712C97.2777 25.9712 96.8045 26.2216 96.6696 26.6591H95.4864C95.6103 25.5956 96.6118 24.9118 98.0179 24.9118C99.5699 24.9118 100.446 25.6864 100.446 26.9948V31.2282H99.2686V30.3573H99.1722C98.9758 30.6697 98.7 30.9244 98.373 31.0953C98.0459 31.2662 97.6794 31.3472 97.3108 31.33C97.0507 31.3569 96.788 31.3291 96.5394 31.2482C96.2908 31.1674 96.0619 31.0353 95.8675 30.8606C95.673 30.6858 95.5174 30.4723 95.4105 30.2337C95.3036 29.9952 95.248 29.7368 95.247 29.4754H95.2457ZM99.2287 28.9471V28.4284L97.7153 28.5247C96.8623 28.5825 96.4756 28.8728 96.4756 29.419C96.4756 29.9762 96.9599 30.2995 97.6245 30.2995C97.8192 30.3192 98.0158 30.2995 98.2028 30.2417C98.3898 30.1838 98.5632 30.089 98.7128 29.9629C98.8625 29.8368 98.9852 29.6819 99.0738 29.5074C99.1624 29.3329 99.2151 29.1424 99.2287 28.9471ZM105.562 23.2003C105.552 23.0419 105.591 22.8843 105.672 22.7479C105.753 22.6115 105.873 22.5027 106.017 22.4356C106.161 22.3684 106.322 22.3459 106.478 22.3711C106.635 22.3963 106.781 22.468 106.896 22.5769C107.012 22.6858 107.092 22.8268 107.126 22.9818C107.161 23.1367 107.148 23.2984 107.089 23.446C107.031 23.5935 106.929 23.72 106.798 23.8092C106.666 23.8984 106.511 23.946 106.353 23.946C106.251 23.9512 106.15 23.9358 106.054 23.9008C105.959 23.8657 105.872 23.8117 105.798 23.7421C105.724 23.6724 105.665 23.5885 105.624 23.4954C105.584 23.4023 105.562 23.3019 105.562 23.2003ZM105.743 25.0329H106.962V31.2282H105.743V25.0329Z" fill="#444444"/>
</g>
<defs>
<clipPath id="clip0_35:204">
<rect width="185.735" height="55.0327" fill="white" id="background" transform="translate(8.25488 11.0065)"/>
</clipPath>
</defs>
</svg>
