<svg width="45" height="45" viewBox="0 0 45 45" fill="none" xmlns="http://www.w3.org/2000/svg">
<path d="M31.875 3.75H13.125C7.94733 3.75 3.75 7.94733 3.75 13.125V31.875C3.75 37.0527 7.94733 41.25 13.125 41.25H31.875C37.0527 41.25 41.25 37.0527 41.25 31.875V13.125C41.25 7.94733 37.0527 3.75 31.875 3.75Z" stroke="#444444" stroke-width="3.75" stroke-linecap="round" stroke-linejoin="round"/>
<path d="M29.999 21.3188C30.2304 22.8793 29.9638 24.473 29.2373 25.8732C28.5107 27.2735 27.3611 28.409 25.952 29.1182C24.5429 29.8275 22.9461 30.0743 21.3886 29.8237C19.8311 29.5731 18.3923 28.8377 17.2768 27.7223C16.1613 26.6068 15.426 25.168 15.1753 23.6105C14.9247 22.053 15.1716 20.4561 15.8808 19.047C16.5901 17.6379 17.7256 16.4883 19.1258 15.7618C20.5261 15.0352 22.1198 14.7687 23.6802 15.0001C25.2719 15.2361 26.7456 15.9778 27.8834 17.1157C29.0212 18.2535 29.7629 19.7271 29.999 21.3188Z" stroke="#444444" stroke-width="3.75" stroke-linecap="round" stroke-linejoin="round"/>
<path d="M32.8125 12.1875H32.8313" stroke="#444444" stroke-width="3.75" stroke-linecap="round" stroke-linejoin="round"/>
</svg>
