<svg width="154" height="126" viewBox="0 0 154 126" fill="none" xmlns="http://www.w3.org/2000/svg">
<path d="M56.3658 47.3236C-16.6991 41.7504 2.17244 113.219 24 116L35.4999 118C46 132 70.4449 118.378 97.6469 103.172C124.224 88.3154 124.678 59.7714 121.583 47.3566C106.582 -6.99759 60.2686 14.0629 56.8282 46.9489C56.8047 47.1735 56.5909 47.3408 56.3658 47.3236Z" fill="white"/>
<path d="M80.3486 89.6386C64.6664 97.4797 61.5713 113.334 61.984 120.281C82.6184 113.843 101.774 100.231 108.514 93.559C108.514 88.7099 99.9512 79.8373 80.3486 89.6386Z" fill="#FFAB0D"/>
<path d="M121.584 47.3566L123.085 46.9822C123.082 46.9697 123.079 46.9572 123.075 46.9448L121.584 47.3566ZM97.6478 103.172L98.4029 104.523L97.6478 103.172ZM56.3666 47.3236L56.2488 48.8667L56.3666 47.3236ZM56.8291 46.9489L55.29 46.7879L56.8291 46.9489ZM55.2282 125.134C56.0662 124.965 56.6091 124.15 56.4408 123.312C56.2726 122.474 55.4569 121.931 54.6189 122.099L55.2282 125.134ZM54.619 122.099C53.781 122.267 53.2381 123.083 53.4063 123.921C53.5746 124.759 54.3903 125.302 55.2283 125.134L54.619 122.099ZM120.437 79.951C120.759 79.1594 120.379 78.2564 119.587 77.9341C118.796 77.6118 117.893 77.9923 117.57 78.7839L120.437 79.951ZM117.57 78.7838C117.248 79.5754 117.629 80.4784 118.42 80.8007C119.212 81.123 120.115 80.7425 120.437 79.9509L117.57 78.7838ZM89.1578 12.4486C88.3032 12.4642 87.6231 13.1696 87.6387 14.0241C87.6543 14.8787 88.3597 15.5588 89.2143 15.5432L89.1578 12.4486ZM89.2142 15.5432C90.0687 15.5276 90.7489 14.8222 90.7333 13.9677C90.7177 13.1131 90.0123 12.433 89.1577 12.4486L89.2142 15.5432ZM55.7082 46.0173C55.0397 46.5499 54.9296 47.5236 55.4622 48.192C55.9949 48.8605 56.9685 48.9706 57.637 48.4379L55.7082 46.0173ZM57.637 48.4379C58.3054 47.9053 58.4155 46.9316 57.8829 46.2632C57.3503 45.5947 56.3766 45.4846 55.7082 46.0173L57.637 48.4379ZM6.18935 66.5103C5.83861 67.2898 6.18614 68.2059 6.96557 68.5567C7.745 68.9074 8.66117 68.5599 9.0119 67.7804L6.18935 66.5103ZM9.01186 67.7805C9.36259 67.0011 9.01506 66.0849 8.23563 65.7342C7.4562 65.3835 6.54003 65.731 6.1893 66.5104L9.01186 67.7805ZM22.9825 95.4483C25.7254 108.28 29.9209 116.515 35.486 121.143C41.1314 125.838 47.9111 126.603 55.2282 125.134L54.6189 122.099C47.8823 123.452 42.1628 122.67 37.4651 118.763C32.6873 114.79 28.6958 107.369 26.0093 94.8012L22.9825 95.4483ZM55.2283 125.134C61.6347 123.847 68.5818 120.829 75.8035 117.098C83.0216 113.37 90.6727 108.844 98.4029 104.523L96.8927 101.821C89.0656 106.197 81.5434 110.65 74.3831 114.348C67.2265 118.045 60.5902 120.9 54.619 122.099L55.2283 125.134ZM98.4029 104.523C109.919 98.0853 116.702 89.125 120.437 79.951L117.57 78.7839C114.077 87.3647 107.744 95.7554 96.8927 101.821L98.4029 104.523ZM120.437 79.9509C125.557 67.3764 124.943 54.4324 123.085 46.9822L120.082 47.7309C121.81 54.6619 122.4 66.9207 117.57 78.7838L120.437 79.9509ZM123.075 46.9448C116.24 22.1784 102.769 12.2003 89.1578 12.4486L89.2143 15.5432C100.874 15.3305 113.467 23.7651 120.092 47.7683L123.075 46.9448ZM89.1577 12.4486C72.7258 12.7484 57.2549 28.005 55.29 46.7879L58.3683 47.11C60.1972 29.6281 74.5874 15.8101 89.2142 15.5432L89.1577 12.4486ZM55.29 46.7879C55.3259 46.4447 55.5043 46.1797 55.7082 46.0173L57.637 48.4379C58.0109 48.14 58.3088 47.6785 58.3683 47.11L55.29 46.7879ZM55.7082 46.0173C55.9084 45.8577 56.1806 45.7573 56.4844 45.7805L56.2488 48.8667C56.7769 48.907 57.2679 48.732 57.637 48.4379L55.7082 46.0173ZM56.4844 45.7805C27.4105 43.5608 12.1849 53.1865 6.18935 66.5103L9.0119 67.7804C14.2779 56.078 27.9287 46.7045 56.2488 48.8667L56.4844 45.7805ZM6.1893 66.5104C1.6219 76.6606 2.60929 88.5823 6.37384 98.1259C8.2612 102.911 10.8737 107.171 13.9197 110.369C16.9537 113.553 20.5162 115.781 24.3004 116.263L24.6915 113.193C21.8485 112.831 18.8973 111.106 16.1607 108.234C13.4361 105.374 11.0209 101.472 9.25309 96.9902C5.70726 88.0011 4.87413 76.9759 9.01186 67.7805L6.1893 66.5104Z" fill="#4C2616"/>
<path d="M75.8067 12.6258L77.5223 16.343C77.6046 16.5213 77.8012 16.6169 77.9923 16.5716L83.2672 15.3199C83.5186 15.2602 83.6541 14.9872 83.5485 14.7514C82.4823 12.3701 80.2658 7.53858 78.4892 4.06252C76.5908 0.348327 71.5079 -0.167533 69.2037 0.038811C62.016 0.726623 47.4344 2.11253 45.474 2.30857C43.2044 2.53553 36.7047 3.03078 37.2204 6.64181C38.0456 12.4195 37.8395 11.6972 39.1807 17.3717C40.2537 21.9113 43.1012 21.0328 45.4742 20.1573C52.5587 17.5437 67.5323 11.9036 70.7513 10.2528C73.964 8.60532 74.669 10.1436 75.8001 12.6113L75.8067 12.6258Z" fill="#4C2616"/>
<path d="M117.871 16.4048C116.055 17.2301 112.369 21.2194 110.752 23.1109L104.975 18.2619C107.698 15.208 114.294 10.4552 117.252 8.46055C122.307 5.05102 130.974 -0.412172 138.402 13.6191C142.721 21.7767 149.648 40.547 151.918 49.3166C154.084 56.126 152.743 56.6418 150.164 58.0862C147.585 59.5306 146.243 60.2528 140.053 62.5226C133.927 64.7689 133.863 60.2529 133.553 55.7133C133.244 51.1737 126.847 22.8014 124.887 17.9523C122.927 13.1033 120.141 15.373 117.871 16.4048Z" fill="#4C2616"/>
<path d="M16.7615 80.1646C11.3966 78.1012 4.82798 70.2257 2.21429 66.5459C-4.22364 56.0636 4.89676 50.7606 10.2617 49.4194C40.2847 41.3719 45.4433 49.3162 47.1973 52.4113C48.9512 55.5065 49.9829 62.6254 37.6023 73.0457C25.2603 83.4335 23.4788 82.7483 16.8242 80.1887L16.7615 80.1646Z" fill="#4C2616"/>
<circle cx="58.5473" cy="80.7831" r="3.40467" fill="#4C2616"/>
<circle cx="55.6586" cy="68.4027" r="3.40467" fill="#4C2616"/>
<circle cx="45.5473" cy="78.5136" r="3.40467" fill="#4C2616"/>
<path d="M91.0916 58.8464C115.758 41.9401 97.5498 29.9199 91.438 36.7005C91.0726 37.1058 90.2822 37.0322 89.9957 36.5678C85.2732 28.9119 65.3193 37.4372 86.1948 58.3904C87.5045 59.7049 89.5611 59.8954 91.0916 58.8464Z" fill="#FFAB0D"/>
<path d="M66.9057 37.7598C65.6676 37.7598 65.1517 40.511 65.0486 41.8866C64.8317 44.7755 66.1216 47.3548 69.5881 47.3548C73.0547 47.3548 74.4716 43.3654 74.7467 41.3708C74.8843 40.5798 74.9324 38.9772 74.0245 38.8947C73.1166 38.8121 72.7863 40.3391 72.3736 41.3708C71.5855 43.341 66.9057 44.8786 67.3183 41.3708C67.6485 38.5645 67.6277 37.7598 66.9057 37.7598Z" fill="#4C2616"/>
<path d="M84.3404 43.0226C84.406 40.856 84.4428 39.9274 83.5143 39.9274C82.5237 39.9274 82.1386 40.8904 82.0699 41.3718C81.2101 45.3955 83.1023 53.258 88.4665 53.443C95.6473 53.6906 97.4432 47.3558 97.5464 44.0543C97.6786 39.8242 96.4108 39.1021 95.6886 39.1021C94.9664 39.1021 94.76 39.1021 94.141 43.3321C93.522 47.5622 90.2205 48.3875 88.4665 48.3875C86.7126 48.3875 84.2372 46.4273 84.3404 43.0226Z" fill="#4C2616"/>
<ellipse cx="17.3098" cy="57.6762" rx="10.1311" ry="4.78238" transform="rotate(-4.17471 17.3098 57.6762)" fill="white"/>
</svg>
