<svg width="201" height="76" viewBox="0 0 201 76" fill="none" xmlns="http://www.w3.org/2000/svg">
<rect x="1.50668" y="1.37582" width="198.118" height="72.9183" rx="12.3824" stroke="black" stroke-width="2.75163"/>
<g clip-path="url(#clip0_35:212)">
<path d="M100.758 40.9306C99.6024 40.936 98.4746 41.2835 97.5166 41.9293C96.5587 42.5751 95.8135 43.4902 95.3752 44.5591C94.9368 45.6281 94.8249 46.8029 95.0537 47.9353C95.2824 49.0677 95.8414 50.107 96.6603 50.922C97.4791 51.737 98.521 52.2912 99.6545 52.5146C100.788 52.738 101.962 52.6206 103.029 52.1772C104.096 51.7339 105.008 50.9844 105.649 50.0234C106.29 49.0625 106.632 47.9331 106.632 46.7778C106.644 46.0045 106.499 45.2368 106.207 44.5205C105.916 43.8042 105.483 43.1539 104.935 42.6084C104.387 42.0628 103.735 41.6331 103.017 41.3448C102.299 41.0566 101.531 40.9157 100.758 40.9306ZM100.758 50.3274C100.047 50.3771 99.3381 50.2119 98.7228 49.8533C98.1074 49.4946 97.6141 48.9592 97.3071 48.3165C97.0001 47.6739 96.8935 46.9537 97.0012 46.2497C97.1089 45.5456 97.4259 44.8903 97.911 44.3688C98.3961 43.8473 99.0269 43.4838 99.7213 43.3255C100.416 43.1673 101.142 43.2216 101.805 43.4814C102.468 43.7413 103.038 44.1946 103.44 44.7824C103.842 45.3703 104.058 46.0655 104.06 46.7778C104.082 47.2291 104.013 47.6802 103.858 48.1046C103.703 48.5291 103.465 48.9182 103.157 49.249C102.85 49.5798 102.479 49.8457 102.067 50.0309C101.654 50.2161 101.209 50.3169 100.758 50.3274ZM87.9488 40.9306C86.7929 40.9333 85.6638 41.2785 84.704 41.9227C83.7442 42.5668 82.9969 43.481 82.5565 44.5497C82.116 45.6183 82.0022 46.7936 82.2294 47.9269C82.4565 49.0603 83.0145 50.1009 83.8328 50.9172C84.6511 51.7336 85.693 52.2891 86.8269 52.5136C87.9607 52.7381 89.1357 52.6215 90.2033 52.1786C91.271 51.7356 92.1834 50.9862 92.8253 50.0249C93.4672 49.0636 93.8098 47.9337 93.8098 46.7778C93.821 46.0045 93.6765 45.2368 93.3849 44.5205C93.0933 43.8042 92.6605 43.1539 92.1124 42.6084C91.5642 42.0628 90.9119 41.6331 90.1942 41.3448C89.4766 41.0566 88.7083 40.9157 87.935 40.9306H87.9488ZM87.9488 50.3274C87.2379 50.3799 86.5278 50.2171 85.9107 49.8604C85.2936 49.5036 84.7983 48.9693 84.4891 48.3271C84.1799 47.6848 84.0712 46.9644 84.1772 46.2596C84.2832 45.5547 84.599 44.8981 85.0834 44.3752C85.5678 43.8523 86.1984 43.4873 86.8931 43.3278C87.5878 43.1683 88.3144 43.2217 88.9784 43.4809C89.6423 43.7401 90.2129 44.1933 90.6157 44.7813C91.0186 45.3693 91.2351 46.065 91.237 46.7778C91.2591 47.2291 91.1907 47.6802 91.0357 48.1046C90.8808 48.5291 90.6424 48.9182 90.3346 49.249C90.0269 49.5798 89.656 49.8457 89.2439 50.0309C88.8318 50.2161 88.3867 50.3169 87.935 50.3274H87.9488ZM72.691 42.7329V45.2094H78.6345C78.5413 46.3758 78.0564 47.4764 77.2587 48.3325C76.6641 48.9381 75.9492 49.4126 75.1602 49.7254C74.3711 50.0382 73.5253 50.1823 72.6772 50.1485C70.9257 50.1485 69.246 49.4528 68.0075 48.2143C66.7691 46.9758 66.0733 45.2961 66.0733 43.5446C66.0733 41.7931 66.7691 40.1134 68.0075 38.8749C69.246 37.6365 70.9257 36.9407 72.6772 36.9407C74.3527 36.9134 75.9706 37.5516 77.1761 38.7155L78.9234 36.9682C78.1096 36.1441 77.1386 35.4918 76.0681 35.0499C74.9975 34.6079 73.8491 34.3854 72.691 34.3954C71.4679 34.3478 70.2477 34.5476 69.1037 34.9829C67.9597 35.4181 66.9152 36.0798 66.0331 36.9283C65.1509 37.7768 64.449 38.7947 63.9697 39.921C63.4903 41.0472 63.2432 42.2587 63.2432 43.4827C63.2432 44.7067 63.4903 45.9182 63.9697 47.0444C64.449 48.1707 65.1509 49.1886 66.0331 50.0371C66.9152 50.8856 67.9597 51.5473 69.1037 51.9825C70.2477 52.4178 71.4679 52.6176 72.691 52.57C73.8686 52.6232 75.044 52.4236 76.138 51.9845C77.232 51.5455 78.2193 50.8772 79.0335 50.0247C80.4749 48.441 81.2445 46.3592 81.1798 44.2188C81.1842 43.6973 81.1381 43.1767 81.0422 42.6641L72.691 42.7329ZM135.029 44.659C134.67 43.6034 133.999 42.6817 133.105 42.0159C132.211 41.3501 131.135 40.9716 130.021 40.9306C129.269 40.9291 128.524 41.082 127.833 41.3798C127.142 41.6776 126.519 42.114 126.003 42.6621C125.487 43.2101 125.089 43.8581 124.834 44.566C124.578 45.2739 124.471 46.0267 124.518 46.7778C124.501 47.5467 124.64 48.3112 124.925 49.0254C125.21 49.7397 125.637 50.3891 126.179 50.9349C126.721 51.4807 127.367 51.9117 128.079 52.202C128.791 52.4924 129.555 52.6363 130.324 52.625C131.286 52.6302 132.235 52.3966 133.085 51.9452C133.935 51.4938 134.66 50.8387 135.194 50.0385L133.199 48.6627C132.902 49.159 132.48 49.5696 131.976 49.8542C131.472 50.1387 130.903 50.2876 130.324 50.2861C129.728 50.3088 129.139 50.1517 128.634 49.8352C128.128 49.5187 127.73 49.0574 127.49 48.5113L135.318 45.2781L135.029 44.659ZM127.049 46.6127C127.022 46.1871 127.079 45.7603 127.218 45.3572C127.357 44.954 127.575 44.5827 127.86 44.265C128.144 43.9472 128.489 43.6894 128.875 43.5067C129.26 43.3239 129.678 43.2199 130.104 43.2007C130.548 43.1714 130.99 43.2732 131.377 43.4933C131.763 43.7134 132.076 44.0422 132.278 44.4389L127.049 46.6127ZM120.693 52.281H123.266V35.0833H120.693V52.281ZM116.483 42.2376H116.387C115.999 41.8041 115.524 41.4574 114.993 41.2203C114.462 40.9832 113.887 40.861 113.305 40.8618C111.802 40.9347 110.384 41.5833 109.345 42.6731C108.307 43.763 107.728 45.2106 107.728 46.7159C107.728 48.2212 108.307 49.6687 109.345 50.7586C110.384 51.8485 111.802 52.4971 113.305 52.57C113.888 52.5798 114.466 52.4617 114.999 52.224C115.531 51.9863 116.005 51.6347 116.387 51.1942H116.469V52.0334C116.469 54.276 115.273 55.4729 113.346 55.4729C112.705 55.4579 112.082 55.2524 111.558 54.8824C111.034 54.5124 110.631 53.9948 110.402 53.3955L108.16 54.331C108.582 55.3579 109.301 56.2352 110.225 56.8505C111.149 57.4658 112.236 57.7909 113.346 57.7843C116.359 57.7843 118.85 56.0095 118.85 51.6894V41.2745H116.483V42.2376ZM113.539 50.3274C112.652 50.2492 111.826 49.8414 111.224 49.1843C110.622 48.5273 110.288 47.6687 110.288 46.7778C110.288 45.8869 110.622 45.0283 111.224 44.3712C111.826 43.7142 112.652 43.3064 113.539 43.2282C113.979 43.2508 114.41 43.3612 114.807 43.5529C115.203 43.7447 115.558 44.0139 115.849 44.3446C116.14 44.6754 116.362 45.0611 116.501 45.479C116.641 45.8969 116.696 46.3385 116.662 46.7778C116.7 47.219 116.647 47.6632 116.508 48.0836C116.369 48.5041 116.146 48.8919 115.853 49.2237C115.56 49.5555 115.202 49.8244 114.802 50.0141C114.402 50.2038 113.968 50.3104 113.525 50.3274H113.539ZM147.081 35.0833H140.931V52.281H143.504V45.7597H147.095C147.828 45.8124 148.565 45.7134 149.258 45.469C149.951 45.2246 150.587 44.84 151.125 44.3391C151.663 43.8383 152.092 43.2319 152.386 42.5579C152.679 41.8839 152.831 41.1566 152.831 40.4215C152.831 39.6864 152.679 38.9591 152.386 38.2851C152.092 37.6111 151.663 37.0047 151.125 36.5039C150.587 36.003 149.951 35.6184 149.258 35.374C148.565 35.1296 147.828 35.0307 147.095 35.0833H147.081ZM147.081 43.3382H143.491V37.4773H147.136C147.919 37.4773 148.67 37.7882 149.223 38.3416C149.777 38.8951 150.088 39.6457 150.088 40.4284C150.088 41.2111 149.777 41.9617 149.223 42.5151C148.67 43.0686 147.919 43.3795 147.136 43.3795L147.081 43.3382ZM162.945 40.8618C162.008 40.8058 161.075 41.0247 160.261 41.4915C159.447 41.9584 158.788 42.6528 158.363 43.4896L160.647 44.4389C160.872 44.0239 161.213 43.6833 161.628 43.4585C162.044 43.2338 162.515 43.1347 162.986 43.1731C163.312 43.135 163.643 43.1623 163.959 43.2534C164.275 43.3445 164.57 43.4976 164.826 43.7038C165.082 43.91 165.295 44.1651 165.451 44.4543C165.608 44.7435 165.705 45.061 165.737 45.3882V45.5671C164.911 45.1296 163.99 44.9027 163.055 44.9067C160.592 44.9067 158.102 46.2825 158.102 48.7727C158.126 49.3037 158.257 49.8244 158.486 50.3041C158.715 50.7837 159.037 51.2126 159.435 51.5653C159.833 51.9181 160.297 52.1875 160.801 52.3577C161.304 52.5279 161.837 52.5954 162.367 52.5562C163.015 52.6027 163.663 52.474 164.244 52.1835C164.825 51.893 165.317 51.4515 165.669 50.9052H165.751V52.281H168.228V45.6634C168.228 42.6503 165.944 40.903 163.013 40.903L162.945 40.8618ZM162.628 50.2861C161.789 50.2861 160.619 49.8596 160.619 48.8277C160.619 47.4519 162.078 46.9979 163.371 46.9979C164.188 46.9777 164.996 47.1773 165.71 47.5758C165.624 48.3206 165.272 49.0093 164.718 49.5149C164.164 50.0206 163.447 50.3091 162.697 50.3274L162.628 50.2861ZM177.253 41.2745L174.309 48.7314H174.226L171.172 41.2745H168.42L173.002 51.7032L170.388 57.4954H173.071L180.115 41.2745H177.253ZM154.126 52.281H156.698V35.0833H154.126V52.281Z" fill="#444444"/>
<path opacity="0.25" d="M24.2211 21.4903L51.0358 36.7344C51.3866 36.9075 51.693 37.1588 51.9315 37.4688C52.17 37.7789 52.3343 38.1395 52.4116 38.5229C52.3768 38.1009 52.2313 37.6955 51.9897 37.3476C51.7481 36.9998 51.4191 36.7218 51.0358 36.5418L24.2211 21.2977C22.295 20.2108 20.7266 21.1188 20.7266 23.3201V23.5265C20.7678 21.3115 22.3088 20.4034 24.2211 21.4903Z" fill="#444444"/>
<path d="M63.7207 28.8922V20.6373H64.7938V27.8741H68.371V28.8922H63.7207ZM69.0038 28.8922L72.1132 20.6373H73.3101L76.4195 28.8922H75.25L74.4246 26.6496H70.985L70.1733 28.8922H69.0038ZM71.3427 25.659H74.0944L72.7185 21.9306L71.3427 25.659ZM77.6165 28.8922V20.6373H80.148C80.7057 20.6121 81.2627 20.7004 81.7853 20.8966C82.3079 21.0929 82.7853 21.3932 83.1885 21.7792C83.5717 22.1732 83.8706 22.6411 84.0669 23.1544C84.2632 23.6677 84.3529 24.2157 84.3304 24.7648C84.3529 25.3139 84.2632 25.8618 84.0669 26.3751C83.8706 26.8884 83.5717 27.3563 83.1885 27.7503C82.7853 28.1364 82.3079 28.4366 81.7853 28.6329C81.2627 28.8292 80.7057 28.9174 80.148 28.8922H77.6165ZM78.6758 27.8741H80.1342C80.5486 27.8957 80.9631 27.8337 81.3531 27.6919C81.7431 27.5501 82.1005 27.3313 82.4043 27.0486C82.6925 26.7453 82.9157 26.3862 83.06 25.9934C83.2043 25.6007 83.2668 25.1826 83.2435 24.7648C83.2788 24.3487 83.2231 23.93 83.0802 23.5376C82.9374 23.1453 82.7107 22.7888 82.4161 22.4929C82.1216 22.197 81.7661 21.9688 81.3744 21.8242C80.9827 21.6795 80.5642 21.622 80.148 21.6554H78.6758V27.8741ZM85.8163 28.8922V20.6373H88.3341C88.8918 20.6121 89.4488 20.7004 89.9714 20.8966C90.494 21.0929 90.9714 21.3932 91.3746 21.7792C91.7603 22.1721 92.0617 22.6394 92.2604 23.1528C92.4591 23.6662 92.551 24.2147 92.5303 24.7648C92.5528 25.3139 92.4631 25.8618 92.2668 26.3751C92.0704 26.8884 91.7716 27.3563 91.3884 27.7503C90.9851 28.1364 90.5078 28.4366 89.9851 28.6329C89.4625 28.8292 88.9055 28.9174 88.3478 28.8922H85.8163ZM86.8757 27.8741H88.3341C88.7485 27.8957 89.163 27.8337 89.553 27.6919C89.9429 27.5501 90.3004 27.3313 90.6042 27.0486C90.8924 26.7453 91.1155 26.3862 91.2599 25.9934C91.4042 25.6007 91.4667 25.1826 91.4434 24.7648C91.4787 24.3487 91.423 23.93 91.2801 23.5376C91.1372 23.1453 90.9106 22.7888 90.616 22.4929C90.3214 22.197 89.9659 21.9688 89.5742 21.8242C89.1825 21.6795 88.764 21.622 88.3478 21.6554H86.8757V27.8741ZM92.9843 28.8922L96.0937 20.6373H97.2906L100.4 28.8922H99.1893L98.3913 26.6496H94.9655L94.1538 28.8922H92.9843ZM95.3232 25.659H98.0749L96.699 21.9306L95.3232 25.659ZM104.376 28.8922V20.6373H105.669L109.687 27.0624V20.6373H110.746V28.8922H109.645L105.449 22.1645V28.8922H104.376ZM117.446 21.6554H113.69V24.2695H117.075V25.2601H113.69V27.8741H117.446V28.8922H112.631V20.6373H117.446V21.6554ZM119.111 28.8922V20.6373H121.629C122.187 20.6121 122.744 20.7004 123.266 20.8966C123.789 21.0929 124.266 21.3932 124.669 21.7792C125.053 22.1732 125.351 22.6411 125.548 23.1544C125.744 23.6677 125.834 24.2157 125.811 24.7648C125.834 25.3139 125.744 25.8618 125.548 26.3751C125.351 26.8884 125.053 27.3563 124.669 27.7503C124.266 28.1364 123.789 28.4366 123.266 28.6329C122.744 28.8292 122.187 28.9174 121.629 28.8922H119.111ZM120.17 27.8741H121.629C122.043 27.8957 122.458 27.8337 122.848 27.6919C123.238 27.5501 123.595 27.3313 123.899 27.0486C124.185 26.7442 124.405 26.3846 124.547 25.9918C124.689 25.5991 124.749 25.1816 124.724 24.7648C124.76 24.3487 124.704 23.93 124.561 23.5376C124.418 23.1453 124.192 22.7888 123.897 22.4929C123.602 22.197 123.247 21.9688 122.855 21.8242C122.464 21.6795 122.045 21.622 121.629 21.6554H120.17V27.8741ZM131.122 28.8922H130.063V20.6373H132.814C133.487 20.6286 134.138 20.88 134.63 21.339C134.874 21.5632 135.068 21.8354 135.201 22.1385C135.334 22.4417 135.403 22.769 135.403 23.1C135.403 23.431 135.334 23.7584 135.201 24.0615C135.068 24.3646 134.874 24.6369 134.63 24.8611C134.139 25.3213 133.488 25.5729 132.814 25.5627H131.067L131.122 28.8922ZM131.122 24.5309H132.897C133.098 24.5383 133.298 24.5015 133.484 24.4231C133.669 24.3446 133.835 24.2264 133.97 24.0769C134.103 23.9485 134.209 23.7946 134.281 23.6244C134.354 23.4542 134.391 23.2712 134.391 23.0863C134.391 22.9013 134.354 22.7183 134.281 22.5481C134.209 22.3779 134.103 22.224 133.97 22.0957C133.835 21.9461 133.669 21.8279 133.484 21.7495C133.298 21.671 133.098 21.6342 132.897 21.6417H131.122V24.5309ZM135.304 28.8922L138.249 21.1051C138.123 20.9964 138.021 20.8633 137.948 20.7137C137.875 20.5642 137.834 20.4015 137.826 20.2354C137.818 20.0694 137.845 19.9035 137.903 19.7479C137.961 19.5923 138.051 19.4502 138.166 19.3303C138.278 19.2013 138.416 19.0974 138.571 19.0255C138.726 18.9536 138.894 18.9152 139.065 18.9129C139.236 18.9107 139.405 18.9446 139.562 19.0124C139.718 19.0802 139.859 19.1804 139.974 19.3064C140.089 19.4324 140.177 19.5813 140.23 19.7435C140.284 19.9056 140.303 20.0772 140.285 20.2471C140.268 20.417 140.215 20.5812 140.129 20.7291C140.044 20.877 139.928 21.0051 139.79 21.1051L142.734 28.8922H141.564L140.766 26.6496H137.299L136.474 28.8922H135.304ZM137.643 25.659H140.395L139.019 21.9306L137.643 25.659ZM139.019 20.6373C139.108 20.6346 139.194 20.606 139.266 20.5551C139.339 20.5042 139.395 20.4332 139.427 20.3508C139.46 20.2684 139.468 20.1783 139.45 20.0915C139.432 20.0047 139.389 19.9251 139.326 19.8625C139.264 19.7998 139.184 19.7569 139.097 19.7389C139.01 19.721 138.92 19.7288 138.838 19.7614C138.756 19.7941 138.685 19.8501 138.634 19.9226C138.583 19.9951 138.554 20.081 138.551 20.1695C138.55 20.2871 138.595 20.4005 138.675 20.486C138.75 20.5676 138.854 20.6169 138.964 20.6236L139.019 20.6373Z" fill="#444444" stroke="#444444" stroke-width="0.275163" stroke-miterlimit="10"/>
<path d="M44.0873 44.4664C44.0873 44.4664 24.248 55.7481 24.2343 55.7481C24.2343 55.7481 23.1267 56.7235 21.7193 55.8939L38.5153 38.9356L44.0873 44.4664ZM21.1662 55.4041C20.6737 54.8125 20.7397 53.5468 20.7397 53.5468L20.7259 23.5265C20.7259 23.5265 20.6475 22.346 21.1635 21.6705L38.075 38.5229L21.1662 55.4041ZM38.928 38.5229L44.5922 44.1596L51.0352 40.504C51.0352 40.504 52.411 39.6125 52.411 38.5229C52.411 37.4332 51.0352 36.5417 51.0352 36.5417L44.6074 32.8916L38.928 38.5229ZM38.5428 38.1651L44.0116 32.5449L24.2205 21.2976C24.2205 21.2976 22.9947 20.3579 21.656 21.1683L38.5428 38.1651Z" fill="#444444"/>
</g>
<defs>
<clipPath id="clip0_35:212">
<rect width="185.735" height="55.0327" fill="white" transform="translate(7.00977 11.0066)"/>
</clipPath>
</defs>
</svg>
