<svg width="201" height="76" viewBox="0 0 201 76" fill="none" xmlns="http://www.w3.org/2000/svg">
<g clip-path="url(#clip0_914_1774)">
<path d="M187.242 1.375H13.8892C7.05063 1.375 1.50684 6.91879 1.50684 13.7574V61.9109C1.50684 68.7495 7.05063 74.2933 13.8892 74.2933H187.242C194.081 74.2933 199.625 68.7495 199.625 61.9109V13.7574C199.625 6.91879 194.081 1.375 187.242 1.375Z" stroke="black" stroke-width="2.75163"/>
<path d="M100.758 40.9307C99.6024 40.9361 98.4746 41.2836 97.5166 41.9294C96.5587 42.5752 95.8135 43.4904 95.3752 44.5593C94.9368 45.6283 94.8249 46.803 95.0537 47.9354C95.2824 49.0678 95.8414 50.1072 96.6603 50.9222C97.4791 51.7372 98.521 52.2913 99.6545 52.5147C100.788 52.7381 101.962 52.6208 103.029 52.1774C104.096 51.7341 105.008 50.9846 105.649 50.0236C106.29 49.0627 106.632 47.9333 106.632 46.778C106.644 46.0047 106.499 45.237 106.207 44.5207C105.916 43.8044 105.483 43.154 104.935 42.6085C104.387 42.0629 103.735 41.6332 103.017 41.3449C102.299 41.0567 101.531 40.9158 100.758 40.9307ZM100.758 50.3276C100.047 50.3773 99.3381 50.212 98.7228 49.8534C98.1074 49.4947 97.6141 48.9594 97.3071 48.3167C97.0001 47.6741 96.8935 46.9538 97.0012 46.2498C97.1089 45.5457 97.4259 44.8905 97.911 44.369C98.3961 43.8475 99.0269 43.484 99.7213 43.3257C100.416 43.1675 101.142 43.2218 101.805 43.4816C102.468 43.7415 103.038 44.1947 103.44 44.7825C103.842 45.3704 104.058 46.0657 104.06 46.778C104.082 47.2293 104.013 47.6803 103.858 48.1047C103.703 48.5292 103.465 48.9184 103.157 49.2492C102.85 49.58 102.479 49.8458 102.067 50.031C101.654 50.2162 101.209 50.3171 100.758 50.3276ZM87.9488 40.9307C86.7929 40.9334 85.6638 41.2786 84.704 41.9228C83.7442 42.5669 82.9969 43.4812 82.5565 44.5499C82.116 45.6185 82.0022 46.7937 82.2294 47.927C82.4565 49.0604 83.0145 50.101 83.8328 50.9173C84.6511 51.7337 85.693 52.2893 86.8269 52.5138C87.9607 52.7383 89.1357 52.6217 90.2033 52.1788C91.271 51.7358 92.1834 50.9863 92.8253 50.025C93.4672 49.0637 93.8098 47.9339 93.8098 46.778C93.821 46.0047 93.6765 45.237 93.3849 44.5207C93.0933 43.8044 92.6605 43.154 92.1124 42.6085C91.5642 42.0629 90.9119 41.6332 90.1942 41.3449C89.4766 41.0567 88.7083 40.9158 87.935 40.9307H87.9488ZM87.9488 50.3276C87.2379 50.3801 86.5278 50.2173 85.9107 49.8606C85.2936 49.5038 84.7983 48.9694 84.4891 48.3272C84.1799 47.6849 84.0712 46.9646 84.1772 46.2598C84.2832 45.5549 84.599 44.8982 85.0834 44.3753C85.5678 43.8524 86.1984 43.4875 86.8931 43.328C87.5878 43.1685 88.3144 43.2219 88.9784 43.4811C89.6423 43.7403 90.2129 44.1935 90.6157 44.7815C91.0186 45.3695 91.2351 46.0652 91.237 46.778C91.2591 47.2293 91.1907 47.6803 91.0357 48.1047C90.8808 48.5292 90.6424 48.9184 90.3346 49.2492C90.0269 49.58 89.656 49.8458 89.2439 50.031C88.8318 50.2162 88.3867 50.3171 87.935 50.3276H87.9488ZM72.691 42.733V45.2096H78.6345C78.5413 46.376 78.0564 47.4766 77.2587 48.3327C76.6641 48.9383 75.9492 49.4127 75.1602 49.7255C74.3711 50.0383 73.5253 50.1824 72.6772 50.1486C70.9257 50.1486 69.246 49.4529 68.0075 48.2144C66.7691 46.9759 66.0733 45.2963 66.0733 43.5448C66.0733 41.7933 66.7691 40.1136 68.0075 38.8751C69.246 37.6367 70.9257 36.9409 72.6772 36.9409C74.3527 36.9136 75.9706 37.5518 77.1761 38.7157L78.9234 36.9684C78.1096 36.1443 77.1386 35.492 76.0681 35.0501C74.9975 34.6081 73.8491 34.3856 72.691 34.3956C71.4679 34.348 70.2477 34.5477 69.1037 34.983C67.9597 35.4182 66.9152 36.0799 66.0331 36.9284C65.1509 37.7769 64.449 38.7949 63.9697 39.9212C63.4903 41.0474 63.2432 42.2589 63.2432 43.4829C63.2432 44.7069 63.4903 45.9183 63.9697 47.0445C64.449 48.1708 65.1509 49.1888 66.0331 50.0373C66.9152 50.8858 67.9597 51.5474 69.1037 51.9826C70.2477 52.4179 71.4679 52.6178 72.691 52.5702C73.8686 52.6234 75.044 52.4238 76.138 51.9847C77.232 51.5457 78.2193 50.8774 79.0335 50.0249C80.4749 48.4412 81.2445 46.3594 81.1798 44.219C81.1842 43.6975 81.1381 43.1769 81.0422 42.6643L72.691 42.733ZM135.029 44.6592C134.67 43.6036 133.999 42.6818 133.105 42.016C132.211 41.3502 131.135 40.9717 130.021 40.9307C129.269 40.9292 128.524 41.0821 127.833 41.3799C127.142 41.6777 126.519 42.1142 126.003 42.6623C125.487 43.2103 125.089 43.8583 124.834 44.5662C124.578 45.2741 124.471 46.0269 124.518 46.778C124.501 47.5469 124.64 48.3113 124.925 49.0255C125.21 49.7398 125.637 50.3892 126.179 50.935C126.721 51.4808 127.367 51.9119 128.079 52.2022C128.791 52.4926 129.555 52.6365 130.324 52.6252C131.286 52.6304 132.235 52.3968 133.085 51.9454C133.935 51.494 134.66 50.8389 135.194 50.0387L133.199 48.6629C132.902 49.1592 132.48 49.5697 131.976 49.8543C131.472 50.1388 130.903 50.2877 130.324 50.2862C129.728 50.3089 129.139 50.1519 128.634 49.8354C128.128 49.5189 127.73 49.0575 127.49 48.5114L135.318 45.2782L135.029 44.6592ZM127.049 46.6129C127.022 46.1873 127.079 45.7605 127.218 45.3574C127.357 44.9542 127.575 44.5829 127.86 44.2652C128.144 43.9474 128.489 43.6895 128.875 43.5068C129.26 43.324 129.678 43.22 130.104 43.2008C130.548 43.1715 130.99 43.2734 131.377 43.4935C131.763 43.7136 132.076 44.0424 132.278 44.4391L127.049 46.6129ZM120.693 52.2811H123.266V35.0835H120.693V52.2811ZM116.483 42.2377H116.387C115.999 41.8042 115.524 41.4575 114.993 41.2204C114.462 40.9833 113.887 40.8612 113.305 40.862C111.802 40.9349 110.384 41.5835 109.345 42.6733C108.307 43.7632 107.728 45.2108 107.728 46.7161C107.728 48.2214 108.307 49.6688 109.345 50.7587C110.384 51.8486 111.802 52.4973 113.305 52.5702C113.888 52.58 114.466 52.4618 114.999 52.2241C115.531 51.9864 116.005 51.6348 116.387 51.1943H116.469V52.0336C116.469 54.2762 115.273 55.4731 113.346 55.4731C112.705 55.4581 112.082 55.2526 111.558 54.8826C111.034 54.5126 110.631 53.995 110.402 53.3957L108.16 54.3312C108.582 55.3581 109.301 56.2353 110.225 56.8506C111.149 57.4659 112.236 57.7911 113.346 57.7845C116.359 57.7845 118.85 56.0097 118.85 51.6896V41.2747H116.483V42.2377ZM113.539 50.3276C112.652 50.2494 111.826 49.8416 111.224 49.1845C110.622 48.5275 110.288 47.6689 110.288 46.778C110.288 45.8871 110.622 45.0285 111.224 44.3714C111.826 43.7144 112.652 43.3065 113.539 43.2283C113.979 43.2509 114.41 43.3613 114.807 43.553C115.203 43.7448 115.558 44.0141 115.849 44.3448C116.14 44.6756 116.362 45.0613 116.501 45.4792C116.641 45.8971 116.696 46.3387 116.662 46.778C116.7 47.2192 116.647 47.6633 116.508 48.0837C116.369 48.5042 116.146 48.8921 115.853 49.2239C115.56 49.5557 115.202 49.8245 114.802 50.0142C114.402 50.2039 113.968 50.3106 113.525 50.3276H113.539ZM147.081 35.0835H140.931V52.2811H143.504V45.7599H147.095C147.828 45.8126 148.565 45.7136 149.258 45.4692C149.951 45.2248 150.587 44.8402 151.125 44.3393C151.663 43.8385 152.092 43.2321 152.386 42.5581C152.679 41.8841 152.831 41.1568 152.831 40.4217C152.831 39.6866 152.679 38.9592 152.386 38.2852C152.092 37.6112 151.663 37.0048 151.125 36.504C150.587 36.0031 149.951 35.6186 149.258 35.3742C148.565 35.1298 147.828 35.0309 147.095 35.0835H147.081ZM147.081 43.3384H143.491V37.4774H147.136C147.919 37.4774 148.67 37.7883 149.223 38.3417C149.777 38.8952 150.088 39.6458 150.088 40.4285C150.088 41.2112 149.777 41.9618 149.223 42.5152C148.67 43.0687 147.919 43.3797 147.136 43.3797L147.081 43.3384ZM162.945 40.862C162.008 40.806 161.075 41.0249 160.261 41.4917C159.447 41.9586 158.788 42.653 158.363 43.4898L160.647 44.4391C160.872 44.0241 161.213 43.6835 161.628 43.4587C162.044 43.234 162.515 43.1349 162.986 43.1733C163.312 43.1352 163.643 43.1624 163.959 43.2535C164.275 43.3446 164.57 43.4978 164.826 43.704C165.082 43.9102 165.295 44.1653 165.451 44.4545C165.608 44.7437 165.705 45.0611 165.737 45.3883V45.5673C164.911 45.1298 163.99 44.9029 163.055 44.9069C160.592 44.9069 158.102 46.2827 158.102 48.7729C158.126 49.3039 158.257 49.8246 158.486 50.3043C158.715 50.7839 159.037 51.2128 159.435 51.5655C159.833 51.9183 160.297 52.1877 160.801 52.3579C161.304 52.5281 161.837 52.5955 162.367 52.5563C163.015 52.6028 163.663 52.4741 164.244 52.1836C164.825 51.8931 165.317 51.4517 165.669 50.9054H165.751V52.2811H168.228V45.6635C168.228 42.6504 165.944 40.9032 163.013 40.9032L162.945 40.862ZM162.628 50.2862C161.789 50.2862 160.619 49.8598 160.619 48.8279C160.619 47.4521 162.078 46.998 163.371 46.998C164.188 46.9778 164.996 47.1775 165.71 47.576C165.624 48.3208 165.272 49.0095 164.718 49.5151C164.164 50.0208 163.447 50.3093 162.697 50.3276L162.628 50.2862ZM177.253 41.2747L174.309 48.7316H174.226L171.172 41.2747H168.42L173.002 51.7034L170.388 57.4956H173.071L180.115 41.2747H177.253ZM154.126 52.2811H156.698V35.0835H154.126V52.2811Z" fill="#444444"/>
<path opacity="0.25" d="M24.2211 21.4899L51.0358 36.734C51.3866 36.9071 51.693 37.1584 51.9315 37.4684C52.17 37.7785 52.3343 38.1391 52.4116 38.5225C52.3768 38.1005 52.2313 37.6951 51.9897 37.3472C51.7481 36.9994 51.4191 36.7214 51.0358 36.5414L24.2211 21.2973C22.295 20.2104 20.7266 21.1184 20.7266 23.3197V23.5261C20.7678 21.3111 22.3088 20.403 24.2211 21.4899Z" fill="#444444"/>
<path d="M63.7207 28.8915V20.6366H64.7938V27.8734H68.371V28.8915H63.7207ZM69.0038 28.8915L72.1132 20.6366H73.3101L76.4195 28.8915H75.25L74.4246 26.6489H70.985L70.1733 28.8915H69.0038ZM71.3427 25.6583H74.0944L72.7185 21.9299L71.3427 25.6583ZM77.6165 28.8915V20.6366H80.148C80.7057 20.6114 81.2627 20.6997 81.7853 20.8959C82.3079 21.0922 82.7853 21.3925 83.1885 21.7785C83.5717 22.1725 83.8706 22.6404 84.0669 23.1537C84.2632 23.667 84.3529 24.215 84.3304 24.7641C84.3529 25.3132 84.2632 25.8611 84.0669 26.3744C83.8706 26.8877 83.5717 27.3556 83.1885 27.7496C82.7853 28.1357 82.3079 28.4359 81.7853 28.6322C81.2627 28.8285 80.7057 28.9167 80.148 28.8915H77.6165ZM78.6758 27.8734H80.1342C80.5486 27.895 80.9631 27.833 81.3531 27.6912C81.7431 27.5494 82.1005 27.3306 82.4043 27.0479C82.6925 26.7446 82.9157 26.3855 83.06 25.9927C83.2043 25.6 83.2668 25.1819 83.2435 24.7641C83.2788 24.348 83.2231 23.9293 83.0802 23.5369C82.9374 23.1446 82.7107 22.7881 82.4161 22.4922C82.1216 22.1963 81.7661 21.9681 81.3744 21.8235C80.9827 21.6788 80.5642 21.6213 80.148 21.6547H78.6758V27.8734ZM85.8163 28.8915V20.6366H88.3341C88.8918 20.6114 89.4488 20.6997 89.9714 20.8959C90.494 21.0922 90.9714 21.3925 91.3746 21.7785C91.7603 22.1714 92.0617 22.6387 92.2604 23.1521C92.4591 23.6655 92.551 24.214 92.5303 24.7641C92.5528 25.3132 92.4631 25.8611 92.2668 26.3744C92.0704 26.8877 91.7716 27.3556 91.3884 27.7496C90.9851 28.1357 90.5078 28.4359 89.9851 28.6322C89.4625 28.8285 88.9055 28.9167 88.3478 28.8915H85.8163ZM86.8757 27.8734H88.3341C88.7485 27.895 89.163 27.833 89.553 27.6912C89.9429 27.5494 90.3004 27.3306 90.6042 27.0479C90.8924 26.7446 91.1155 26.3855 91.2599 25.9927C91.4042 25.6 91.4667 25.1819 91.4434 24.7641C91.4787 24.348 91.423 23.9293 91.2801 23.5369C91.1372 23.1446 90.9106 22.7881 90.616 22.4922C90.3214 22.1963 89.9659 21.9681 89.5742 21.8235C89.1825 21.6788 88.764 21.6213 88.3478 21.6547H86.8757V27.8734ZM92.9843 28.8915L96.0937 20.6366H97.2906L100.4 28.8915H99.1893L98.3913 26.6489H94.9655L94.1538 28.8915H92.9843ZM95.3232 25.6583H98.0749L96.699 21.9299L95.3232 25.6583ZM104.376 28.8915V20.6366H105.669L109.687 27.0617V20.6366H110.746V28.8915H109.645L105.449 22.1638V28.8915H104.376ZM117.446 21.6547H113.69V24.2688H117.075V25.2594H113.69V27.8734H117.446V28.8915H112.631V20.6366H117.446V21.6547ZM119.111 28.8915V20.6366H121.629C122.187 20.6114 122.744 20.6997 123.266 20.8959C123.789 21.0922 124.266 21.3925 124.669 21.7785C125.053 22.1725 125.351 22.6404 125.548 23.1537C125.744 23.667 125.834 24.215 125.811 24.7641C125.834 25.3132 125.744 25.8611 125.548 26.3744C125.351 26.8877 125.053 27.3556 124.669 27.7496C124.266 28.1357 123.789 28.4359 123.266 28.6322C122.744 28.8285 122.187 28.9167 121.629 28.8915H119.111ZM120.17 27.8734H121.629C122.043 27.895 122.458 27.833 122.848 27.6912C123.238 27.5494 123.595 27.3306 123.899 27.0479C124.185 26.7435 124.405 26.3839 124.547 25.9911C124.689 25.5984 124.749 25.1809 124.724 24.7641C124.76 24.348 124.704 23.9293 124.561 23.5369C124.418 23.1446 124.192 22.7881 123.897 22.4922C123.602 22.1963 123.247 21.9681 122.855 21.8235C122.464 21.6788 122.045 21.6213 121.629 21.6547H120.17V27.8734ZM131.122 28.8915H130.063V20.6366H132.814C133.487 20.6279 134.138 20.8793 134.63 21.3383C134.874 21.5625 135.068 21.8347 135.201 22.1378C135.334 22.441 135.403 22.7683 135.403 23.0993C135.403 23.4303 135.334 23.7577 135.201 24.0608C135.068 24.3639 134.874 24.6362 134.63 24.8604C134.139 25.3206 133.488 25.5722 132.814 25.562H131.067L131.122 28.8915ZM131.122 24.5302H132.897C133.098 24.5376 133.298 24.5008 133.484 24.4224C133.669 24.3439 133.835 24.2257 133.97 24.0762C134.103 23.9478 134.209 23.7939 134.281 23.6237C134.354 23.4535 134.391 23.2705 134.391 23.0856C134.391 22.9006 134.354 22.7176 134.281 22.5474C134.209 22.3772 134.103 22.2233 133.97 22.095C133.835 21.9454 133.669 21.8272 133.484 21.7488C133.298 21.6703 133.098 21.6335 132.897 21.641H131.122V24.5302ZM135.304 28.8915L138.249 21.1044C138.123 20.9957 138.021 20.8626 137.948 20.713C137.875 20.5635 137.834 20.4008 137.826 20.2347C137.818 20.0687 137.845 19.9028 137.903 19.7472C137.961 19.5916 138.051 19.4495 138.166 19.3296C138.278 19.2006 138.416 19.0967 138.571 19.0248C138.726 18.9529 138.894 18.9145 139.065 18.9122C139.236 18.91 139.405 18.9439 139.562 19.0117C139.718 19.0795 139.859 19.1797 139.974 19.3057C140.089 19.4317 140.177 19.5806 140.23 19.7428C140.284 19.9049 140.303 20.0765 140.285 20.2464C140.268 20.4163 140.215 20.5805 140.129 20.7284C140.044 20.8763 139.928 21.0044 139.79 21.1044L142.734 28.8915H141.564L140.766 26.6489H137.299L136.474 28.8915H135.304ZM137.643 25.6583H140.395L139.019 21.9299L137.643 25.6583ZM139.019 20.6366C139.108 20.6339 139.194 20.6053 139.266 20.5544C139.339 20.5035 139.395 20.4325 139.427 20.3501C139.46 20.2677 139.468 20.1776 139.45 20.0908C139.432 20.004 139.389 19.9244 139.326 19.8618C139.264 19.7991 139.184 19.7562 139.097 19.7382C139.01 19.7203 138.92 19.7281 138.838 19.7607C138.756 19.7934 138.685 19.8494 138.634 19.9219C138.583 19.9944 138.554 20.0803 138.551 20.1688C138.55 20.2864 138.595 20.3998 138.675 20.4853C138.75 20.5669 138.854 20.6162 138.964 20.6229L139.019 20.6366Z" fill="#444444" stroke="#444444" stroke-width="0.275163" stroke-miterlimit="10"/>
<path d="M44.0873 44.4655C44.0873 44.4655 24.248 55.7472 24.2343 55.7472C24.2343 55.7472 23.1267 56.7226 21.7193 55.893L38.5153 38.9347L44.0873 44.4655ZM21.1662 55.4032C20.6737 54.8116 20.7397 53.5459 20.7397 53.5459L20.7259 23.5256C20.7259 23.5256 20.6475 22.3451 21.1635 21.6696L38.075 38.522L21.1662 55.4032ZM38.928 38.522L44.5922 44.1587L51.0352 40.5031C51.0352 40.5031 52.411 39.6116 52.411 38.522C52.411 37.4323 51.0352 36.5408 51.0352 36.5408L44.6074 32.8907L38.928 38.522ZM38.5428 38.1642L44.0116 32.544L24.2205 21.2967C24.2205 21.2967 22.9947 20.357 21.656 21.1674L38.5428 38.1642Z" fill="#444444"/>
<line x1="34.9153" y1="81.7016" x2="175.915" y2="-15.2984" stroke="#C5CCF4" stroke-opacity="0.95" stroke-width="25"/>
<path d="M56.3896 67.8182C55.7841 66.9726 55.4285 66.0895 55.3228 65.169C55.2112 64.2403 55.3497 63.3601 55.7381 62.5285C56.1289 61.6829 56.7389 60.9632 57.5682 60.3694C58.5845 59.6416 59.6466 59.287 60.7545 59.3054C61.8623 59.3239 62.8701 59.7092 63.7777 60.4614L61.4849 62.1032C61.058 61.8677 60.6191 61.77 60.1681 61.8101C59.7252 61.8443 59.3046 62.0041 58.9062 62.2894C58.2639 62.7493 57.9036 63.3455 57.8254 64.0779C57.7473 64.8104 57.976 65.5506 58.5116 66.2986C59.0472 67.0466 59.6743 67.5016 60.3929 67.6635C61.1115 67.8254 61.792 67.6764 62.4343 67.2164C62.8327 66.9311 63.1194 66.5844 63.2945 66.1761C63.4777 65.7621 63.5265 65.3151 63.4411 64.8351L65.7339 63.1933C66.1537 64.2948 66.1939 65.3729 65.8545 66.4277C65.5094 67.4743 64.8286 68.3615 63.8123 69.0893C62.983 69.6831 62.1081 70.0329 61.1875 70.1386C60.2693 70.2304 59.3914 70.078 58.554 69.6814C57.7165 69.2848 56.995 68.6637 56.3896 67.8182ZM72.2745 63.0851C71.6078 63.5625 70.9043 63.851 70.1639 63.9507C69.4316 64.0446 68.7218 63.9379 68.0344 63.6307C67.3552 63.3176 66.7623 62.8074 66.2558 62.1C65.7551 61.4008 65.47 60.6764 65.4005 59.9266C65.3252 59.1688 65.454 58.4555 65.7868 57.7866C66.1197 57.1178 66.6195 56.5447 67.2862 56.0673C67.9529 55.5899 68.6564 55.3014 69.3968 55.2017C70.1372 55.102 70.8539 55.2098 71.5472 55.5252C72.2345 55.8325 72.8286 56.3357 73.3293 57.0349C73.83 57.7341 74.1139 58.4656 74.1811 59.2292C74.2505 59.979 74.1148 60.6911 73.7738 61.3658C73.441 62.0346 72.9412 62.6077 72.2745 63.0851ZM70.982 61.2801C71.3804 60.9949 71.613 60.6069 71.6799 60.1163C71.7548 59.6198 71.5973 59.0992 71.2072 58.5544C70.8172 58.0097 70.3791 57.69 69.8931 57.5952C69.4152 57.4946 68.977 57.587 68.5786 57.8723C68.1721 58.1634 67.9395 58.5513 67.8808 59.0362C67.8162 59.5128 67.9819 60.0276 68.3778 60.5805C68.7679 61.1252 69.1978 61.4508 69.6676 61.5572C70.1455 61.6578 70.5836 61.5654 70.982 61.2801ZM80.6301 46.549C81.4757 45.9435 82.3298 45.7193 83.1926 45.8764C84.0634 46.0276 84.8249 46.5586 85.477 47.4692L88.3239 51.445L86.2506 52.9296L83.6045 49.2343C83.2902 48.7952 82.9307 48.5423 82.526 48.4753C82.1237 48.3944 81.7193 48.4995 81.3128 48.7906C80.9063 49.0817 80.6724 49.4336 80.6113 49.8464C80.5525 50.2452 80.6803 50.6641 80.9947 51.1032L83.6408 54.7984L81.5675 56.2831L78.9214 52.5878C78.607 52.1487 78.2475 51.8957 77.8429 51.8288C77.4406 51.7479 77.0362 51.853 76.6296 52.1441C76.2231 52.4352 75.9893 52.7871 75.9282 53.1999C75.8693 53.5987 75.9971 54.0176 76.3115 54.4566L78.9576 58.1519L76.8722 59.6453L71.9991 52.8401L74.0846 51.3467L74.6959 52.2004C74.7035 51.7645 74.8199 51.3429 75.0449 50.9358C75.2641 50.5205 75.5892 50.1586 76.0201 49.8501C76.5323 49.4833 77.0662 49.267 77.6218 49.2013C78.1855 49.1297 78.7268 49.2156 79.2455 49.4592C79.2135 48.9163 79.3163 48.3815 79.554 47.8546C79.7917 47.3277 80.1504 46.8925 80.6301 46.549ZM85.4517 42.137C85.0859 42.399 84.7094 42.5087 84.3222 42.4661C83.9374 42.4096 83.6314 42.2228 83.4044 41.9057C83.1715 41.5805 83.0932 41.2307 83.1695 40.8563C83.248 40.4679 83.4703 40.1428 83.8361 39.8808C84.1939 39.6246 84.5652 39.5248 84.95 39.5813C85.3372 39.6238 85.6472 39.8077 85.8801 40.1329C86.1071 40.45 86.1814 40.8028 86.1028 41.1911C86.0265 41.5655 85.8095 41.8808 85.4517 42.137ZM86.9949 42.102L91.8679 48.9072L89.7824 50.4006L84.9094 43.5954L86.9949 42.102ZM92.6003 37.9774C93.3971 37.4069 94.2176 37.2129 95.0618 37.3956C95.9083 37.5643 96.6546 38.0999 97.3009 39.0024L100.148 42.9782L98.0746 44.4628L95.4285 40.7675C95.1024 40.3122 94.7313 40.043 94.315 39.9598C93.8988 39.8765 93.4914 39.9776 93.093 40.2629C92.6946 40.5481 92.4678 40.9012 92.4125 41.3221C92.3572 41.743 92.4926 42.1811 92.8186 42.6364L95.4647 46.3317L93.3792 47.825L88.5062 41.0198L90.5917 39.5265L91.2379 40.429C91.2339 39.9768 91.3496 39.5372 91.5851 39.1103C91.8148 38.6753 92.1532 38.2976 92.6003 37.9774ZM99.2396 33.1863C99.7193 32.8428 100.208 32.6406 100.705 32.5795C101.211 32.5127 101.675 32.5679 102.097 32.7453L101.407 31.7818L103.493 30.2885L108.357 37.0815C108.805 37.7075 109.084 38.3628 109.193 39.0474C109.316 39.7343 109.229 40.4115 108.932 41.0791C108.643 41.7409 108.121 42.3425 107.365 42.884C106.356 43.6059 105.368 43.9512 104.398 43.9198C103.434 43.8965 102.617 43.5104 101.945 42.7614L104.006 41.2855C104.257 41.4991 104.557 41.5917 104.906 41.5634C105.261 41.5432 105.617 41.4051 105.975 41.1489C106.405 40.8403 106.657 40.4698 106.728 40.0373C106.814 39.607 106.662 39.1196 106.271 38.5748L105.582 37.6114C105.605 38.074 105.511 38.535 105.299 38.9945C105.081 39.4458 104.732 39.8432 104.252 40.1867C103.691 40.5884 103.081 40.81 102.422 40.8514C101.757 40.8848 101.102 40.7333 100.455 40.3969C99.8104 40.0466 99.2378 39.5218 98.7371 38.8226C98.2364 38.1234 97.927 37.4164 97.8087 36.7016C97.6986 35.981 97.7693 35.3154 98.0208 34.7048C98.2724 34.0942 98.6786 33.588 99.2396 33.1863ZM103.844 35.1844C103.471 34.6641 103.031 34.3583 102.523 34.267C102.023 34.17 101.565 34.2699 101.151 34.5668C100.736 34.8638 100.49 35.2674 100.413 35.7778C100.338 36.2743 100.487 36.7827 100.859 37.3031C101.232 37.8234 101.671 38.1362 102.177 38.2414C102.685 38.3326 103.146 38.2298 103.561 37.9328C103.976 37.6359 104.217 37.2352 104.287 36.7306C104.364 36.2202 104.216 35.7048 103.844 35.1844ZM115.297 32.2778C114.704 32.7028 114.102 32.9796 113.493 33.1082C112.884 33.2368 112.321 33.2224 111.802 33.0649C111.277 32.8993 110.842 32.6086 110.495 32.1928L112.556 30.717C112.749 30.9353 112.996 31.0478 113.296 31.0544C113.596 31.061 113.888 30.9624 114.172 30.7586C114.433 30.5723 114.597 30.3809 114.665 30.1844C114.736 29.9739 114.713 29.7873 114.596 29.6247C114.457 29.4296 114.253 29.3601 113.986 29.4162C113.713 29.4642 113.308 29.5943 112.771 29.8065C112.202 30.042 111.711 30.2152 111.298 30.3261C110.88 30.4289 110.457 30.4306 110.029 30.3311C109.595 30.2235 109.212 29.938 108.88 29.4746C108.601 29.0843 108.453 28.6549 108.438 28.1865C108.424 27.7041 108.558 27.2209 108.839 26.737C109.128 26.2472 109.561 25.7957 110.138 25.3823C110.992 24.771 111.814 24.5021 112.604 24.5755C113.403 24.6432 114.089 25.0004 114.663 25.6472L112.736 27.0271C112.535 26.8146 112.295 26.7032 112.018 26.6931C111.748 26.6772 111.471 26.7711 111.186 26.9748C110.942 27.1495 110.79 27.3322 110.73 27.5229C110.664 27.7055 110.689 27.8781 110.806 28.0407C110.945 28.2358 111.152 28.3094 111.425 28.2614C111.706 28.2076 112.101 28.0723 112.61 27.8555C113.207 27.6246 113.711 27.4607 114.121 27.3637C114.526 27.2586 114.948 27.2639 115.387 27.3796C115.829 27.4814 116.223 27.7652 116.569 28.2309C116.854 28.6293 116.996 29.0686 116.996 29.5487C116.997 30.0148 116.851 30.4887 116.556 30.9703C116.27 31.4461 115.85 31.8819 115.297 32.2778ZM122.427 27.1724C121.76 27.6498 121.057 27.9383 120.316 28.038C119.584 28.1319 118.874 28.0252 118.187 27.7179C117.508 27.4049 116.915 26.8947 116.408 26.1873C115.907 25.4881 115.622 24.7636 115.553 24.0139C115.478 23.2561 115.606 22.5427 115.939 21.8739C116.272 21.2051 116.772 20.632 117.439 20.1546C118.105 19.6772 118.809 19.3886 119.549 19.289C120.29 19.1893 121.006 19.2971 121.7 19.6125C122.387 19.9197 122.981 20.423 123.482 21.1222C123.982 21.8214 124.266 22.5529 124.333 23.3165C124.403 24.0662 124.267 24.7784 123.926 25.4531C123.593 26.1219 123.094 26.695 122.427 27.1724ZM121.134 25.3674C121.533 25.0821 121.765 24.6942 121.832 24.2035C121.907 23.7071 121.75 23.1865 121.36 22.6417C120.97 22.097 120.532 21.7772 120.045 21.6825C119.568 21.5819 119.129 21.6743 118.731 21.9596C118.325 22.2507 118.092 22.6386 118.033 23.1234C117.969 23.6001 118.134 24.1149 118.53 24.6678C118.92 25.2125 119.35 25.5381 119.82 25.6445C120.298 25.7451 120.736 25.6527 121.134 25.3674ZM130.192 21.6119C129.525 22.0893 128.822 22.3779 128.082 22.4776C127.349 22.5714 126.639 22.4647 125.952 22.1575C125.273 21.8444 124.68 21.3342 124.173 20.6269C123.673 19.9276 123.388 19.2032 123.318 18.4535C123.243 17.6956 123.372 16.9823 123.704 16.3135C124.037 15.6446 124.537 15.0715 125.204 14.5941C125.87 14.1167 126.574 13.8282 127.314 13.7285C128.055 13.6288 128.772 13.7367 129.465 14.052C130.152 14.3593 130.746 14.8625 131.247 15.5617C131.748 16.2609 132.032 16.9924 132.099 17.7561C132.168 18.5058 132.032 19.218 131.691 19.8926C131.359 20.5614 130.859 21.1345 130.192 21.6119ZM128.9 19.807C129.298 19.5217 129.531 19.1337 129.598 18.6431C129.672 18.1466 129.515 17.626 129.125 17.0813C128.735 16.5365 128.297 16.2168 127.811 16.122C127.333 16.0215 126.895 16.1138 126.496 16.3991C126.09 16.6902 125.857 17.0782 125.798 17.563C125.734 18.0397 125.9 18.5545 126.295 19.1073C126.686 19.6521 127.115 19.9776 127.585 20.084C128.063 20.1846 128.501 20.0922 128.9 19.807ZM134.011 8.32449C134.808 7.75394 135.628 7.56 136.472 7.74267C137.319 7.91139 138.065 8.447 138.711 9.34948L141.558 13.3253L139.485 14.8099L136.839 11.1146C136.513 10.6593 136.142 10.39 135.726 10.3068C135.309 10.2236 134.902 10.3246 134.504 10.6099C134.105 10.8952 133.878 11.2483 133.823 11.6692C133.768 12.09 133.903 12.5281 134.229 12.9834L136.875 16.6787L134.79 18.1721L129.917 11.3669L132.002 9.87354L132.648 10.776C132.644 10.3238 132.76 9.88427 132.996 9.45737C133.225 9.02233 133.564 8.6447 134.011 8.32449Z" fill="white"/>
</g>
<defs>
<clipPath id="clip0_914_1774">
<rect width="201" height="76" fill="white"/>
</clipPath>
</defs>
</svg>
